<svg width="428" height="804" viewBox="0 0 428 804" fill="none" xmlns="http://www.w3.org/2000/svg">
<rect width="428" height="804" fill="url(#paint0_linear_83_550)"/>
<g opacity="0.5">
<path d="M375.373 273L387.382 294.718L411.745 299.426L394.803 317.559L397.854 342.187L375.373 331.675L352.889 342.187L355.941 317.559L339 299.426L363.363 294.718L375.373 273Z" fill="#FFE98F"/>
<path d="M375.373 273L387.382 294.718L411.745 299.426L394.803 317.559L397.854 342.187L375.373 331.675V273Z" fill="#FFDA44"/>
</g>
<g opacity="0.5">
<path d="M72.3725 635L84.3817 656.718L108.745 661.426L91.8034 679.559L94.8541 704.187L72.3725 693.675L49.8895 704.187L52.9407 679.559L36 661.426L60.3631 656.718L72.3725 635Z" fill="#FFE98F"/>
<path d="M72.3726 635L84.3817 656.718L108.745 661.426L91.8034 679.559L94.8542 704.187L72.3726 693.675V635Z" fill="#FFDA44"/>
</g>
<g opacity="0.5">
<path d="M374.373 566L386.382 587.718L410.745 592.426L393.803 610.559L396.854 635.187L374.373 624.675L351.889 635.187L354.941 610.559L338 592.426L362.363 587.718L374.373 566Z" fill="#FFE98F"/>
<path d="M374.373 566L386.382 587.718L410.745 592.426L393.803 610.559L396.854 635.187L374.373 624.675V566Z" fill="#FFDA44"/>
</g>
<g opacity="0.5">
<path d="M47.3725 175L59.3817 196.718L83.745 201.426L66.8034 219.559L69.8541 244.187L47.3725 233.675L24.8895 244.187L27.9407 219.559L11 201.426L35.3631 196.718L47.3725 175Z" fill="#FFE98F"/>
<path d="M47.3726 175L59.3817 196.718L83.7451 201.426L66.8034 219.559L69.8542 244.187L47.3726 233.675V175Z" fill="#FFDA44"/>
</g>
<defs>
<linearGradient id="paint0_linear_83_550" x1="214" y1="0" x2="214" y2="804" gradientUnits="userSpaceOnUse">
<stop stop-color="#0083CB"/>
<stop offset="1" stop-color="#01D4CA"/>
</linearGradient>
</defs>
</svg>
