<svg width="428" height="804" viewBox="0 0 428 804" fill="none" xmlns="http://www.w3.org/2000/svg">
<g clip-path="url(#clip0_599_2)">
<rect width="428" height="804" fill="url(#paint0_linear_599_2)"/>
<path d="M71.4169 186.973L60.2589 192.774L61.2158 198.985L53.5925 202.948L48.8663 167.427L57.2987 163.043L83.6597 187.316L75.9512 191.323L71.4169 186.973ZM66.6203 182.325L57.2247 173.306L59.2526 186.156L66.6203 182.325Z" fill="white" fill-opacity="0.54"/>
<path d="M55.9216 697.041L58.8231 702.943L46.5037 709L49.6382 715.375L58.8562 710.843L61.673 716.572L52.455 721.104L58.4699 733.337L51.1041 736.959L36.2363 706.72L55.9216 697.041Z" fill="white" fill-opacity="0.54"/>
<path d="M97.5215 48.8703C99.0394 50.1662 99.9528 51.7715 100.262 53.6861C100.586 55.5726 100.283 57.3739 99.3527 59.09C98.0107 61.5657 96.0711 63.0622 93.5339 63.5797C91.0401 64.0842 88.2459 63.4978 85.1513 61.8203L71.3521 54.3405L87.4098 24.7166L100.745 31.9449C103.755 33.5766 105.73 35.5391 106.671 37.8326C107.64 40.1413 107.484 42.4773 106.203 44.8404C105.258 46.5847 104.008 47.7819 102.454 48.4321C100.929 49.0976 99.2847 49.2436 97.5215 48.8703ZM88.1296 40.6127L92.8559 43.1746C94.0375 43.8151 95.075 44.0499 95.9684 43.879C96.9052 43.6952 97.6481 43.0969 98.1971 42.0841C98.746 41.0713 98.8419 40.1223 98.4846 39.237C98.1554 38.367 97.4 37.6118 96.2184 36.9713L91.4921 34.4094L88.1296 40.6127ZM87.0419 55.3106C88.2516 55.9663 89.3249 56.2023 90.2617 56.0185C91.2419 55.8219 92.0141 55.2031 92.5783 54.1622C93.1425 53.1212 93.2331 52.1148 92.85 51.1427C92.4951 50.186 91.7127 49.3797 90.503 48.724L85.2703 45.8876L81.7248 52.4285L87.0419 55.3106Z" fill="white" fill-opacity="0.54"/>
<path d="M220.112 684.29L216.73 690.208L226.273 695.662L223.129 701.163L213.586 695.709L209.918 702.127L220.712 708.295L217.449 714.005L199.529 703.763L216.248 674.508L234.168 684.749L230.905 690.459L220.112 684.29Z" fill="white" fill-opacity="0.54"/>
<path d="M240.456 69.8886C242.042 66.9627 244.086 64.7036 246.587 63.111C249.103 61.4904 251.83 60.657 254.767 60.611C257.747 60.5521 260.672 61.3004 263.541 62.8558C267.058 64.762 269.565 67.3221 271.062 70.536C272.56 73.75 272.861 77.1893 271.967 80.8539L264.033 76.5536C264.113 74.9955 263.78 73.5956 263.034 72.3538C262.316 71.1273 261.267 70.1404 259.889 69.3932C257.666 68.1884 255.446 67.9861 253.229 68.7862C251.012 69.5863 249.202 71.2804 247.799 73.8687C246.396 76.4569 245.964 78.8983 246.504 81.1928C247.044 83.4873 248.425 85.2369 250.647 86.4416C252.026 87.1889 253.425 87.5287 254.845 87.4611C256.293 87.4088 257.648 86.9238 258.909 86.0062L266.843 90.3065C264.26 93.0562 261.214 94.6808 257.704 95.1804C254.209 95.6518 250.703 94.9344 247.186 93.0283C244.317 91.4728 242.086 89.4445 240.493 86.9433C238.944 84.4293 238.154 81.6897 238.123 78.7248C238.093 75.7598 238.87 72.8144 240.456 69.8886Z" fill="white" fill-opacity="0.54"/>
<path d="M424.959 586.202L408.24 615.457L401.113 611.385L407.997 599.341L396.911 593.005L390.028 605.049L382.902 600.977L399.621 571.721L406.748 575.794L400.198 587.254L411.283 593.59L417.833 582.129L424.959 586.202Z" fill="white" fill-opacity="0.54"/>
<path d="M363.226 175.808C365.858 173.422 368.63 171.859 371.544 171.118C374.457 170.378 377.307 170.472 380.093 171.402C382.882 172.286 385.393 173.961 387.629 176.427C389.842 178.868 391.264 181.532 391.893 184.417C392.545 187.281 392.348 190.137 391.303 192.986C390.28 195.813 388.465 198.409 385.858 200.773L376.505 209.251L353.873 184.287L363.226 175.808ZM380.695 195.864C382.995 193.779 384.215 191.528 384.356 189.111C384.497 186.694 383.526 184.336 381.441 182.036C379.356 179.736 377.093 178.527 374.652 178.407C372.212 178.287 369.841 179.27 367.542 181.355L364.661 183.966L377.815 198.475L380.695 195.864Z" fill="white" fill-opacity="0.54"/>
<path d="M368.442 722.222C367.249 721.774 366.029 721.709 364.781 722.028C363.537 722.302 362.334 722.942 361.173 723.948C359.166 725.687 358.133 727.745 358.077 730.123C357.999 732.477 358.913 734.754 360.82 736.955C362.853 739.301 365.074 740.594 367.484 740.835C369.898 741.03 372.217 740.164 374.442 738.236C375.966 736.916 376.912 735.419 377.282 733.744C377.675 732.048 377.485 730.265 376.712 728.395L368.839 735.215L364.879 730.644L378.374 718.952L383.372 724.72C384.253 726.666 384.714 728.786 384.754 731.08C384.818 733.353 384.36 735.634 383.38 737.923C382.399 740.212 380.845 742.279 378.716 744.123C376.201 746.302 373.48 747.707 370.554 748.337C367.631 748.921 364.765 748.716 361.955 747.721C359.17 746.705 356.687 744.939 354.508 742.424C352.329 739.909 350.935 737.2 350.326 734.298C349.72 731.351 349.925 728.485 350.941 725.699C351.936 722.89 353.692 720.395 356.207 718.216C359.254 715.576 362.457 714.092 365.815 713.765C369.197 713.418 372.359 714.256 375.299 716.282L368.442 722.222Z" fill="white" fill-opacity="0.54"/>
</g>
<defs>
<linearGradient id="paint0_linear_599_2" x1="214" y1="0" x2="214" y2="804" gradientUnits="userSpaceOnUse">
<stop stop-color="#0083CB"/>
<stop offset="1" stop-color="#01D4CA"/>
</linearGradient>
<clipPath id="clip0_599_2">
<rect width="428" height="804" fill="white"/>
</clipPath>
</defs>
</svg>
